<svg xmlns="http://www.w3.org/2000/svg" viewBox="0 0 512 512" role="img" aria-label="WhatsApp">
  <defs>
    <linearGradient id="g" x1="0" y1="0" x2="1" y2="1">
      <stop offset="0%" stop-color="#63e56a"/>
      <stop offset="100%" stop-color="#16a34a"/>
    </linearGradient>
  </defs>
  <rect x="8" y="8" width="496" height="496" rx="108" fill="url(#g)"/>
  <path d="M256 94c-89 0-161 72-161 161 0 31 9 62 25 88l-22 80 82-21c24 13 50 20 76 20 89 0 161-72 161-161S345 94 256 94zm0 293c-23 0-45-6-64-18l-9-5-47 12 13-45-6-10c-13-19-20-40-20-61 0-73 60-133 133-133s133 60 133 133-60 133-133 133z" fill="#fff"/>
  <path d="M222 193c-6 0-12 1-16 7-4 6-16 16-16 38s16 43 18 46c3 3 37 57 90 78 44 17 53 14 63 13 10-2 32-13 37-25 4-12 4-22 3-25-2-3-6-5-12-8-6-3-35-17-40-19-6-2-10-3-14 3-4 6-16 19-20 23-4 5-7 5-13 2-6-3-24-9-45-29-16-15-27-34-30-40-3-6 0-9 2-12 2-2 6-7 9-10 3-4 4-6 6-10 2-4 1-8 0-11-2-3-14-34-19-46-5-11-10-10-14-10h-12z" fill="#fff"/>
</svg>
