<svg xmlns="http://www.w3.org/2000/svg" viewBox="0 0 512 512" role="img" aria-label="WhatsApp">
  <defs>
    <linearGradient id="waGreen" x1="0" y1="0" x2="0" y2="1">
      <stop offset="0%" stop-color="#5BF56B"/>
      <stop offset="100%" stop-color="#22C325"/>
    </linearGradient>
  </defs>
  <rect x="0" y="0" width="512" height="512" rx="98" fill="url(#waGreen)"/>
  <path d="M257 76c-95 0-171 75-171 168 0 31 8 61 24 88L78 439l110-29c24 13 45 19 69 19 95 0 171-75 171-168S352 76 257 76zm0 315c-21 0-42-6-60-17l-8-5-64 16 17-61-5-9c-15-24-23-50-23-77 0-78 64-141 143-141s143 63 143 141-64 143-143 143z" fill="#fff"/>
  <path d="M213 174c-7 0-13 2-18 9-5 7-18 18-18 43 0 24 18 48 21 51 3 4 40 63 99 86 49 19 59 16 70 14 11-2 35-14 40-28 5-13 5-25 4-28-2-4-7-6-13-9-7-4-39-19-45-22-6-2-11-4-15 4-5 7-18 22-23 27-4 5-8 6-14 3-7-4-26-10-50-32-18-17-30-38-34-45-3-6 1-10 4-13 3-3 7-8 10-12 4-4 5-7 7-11 2-5 1-9 0-12-2-4-15-38-22-51-5-12-11-11-15-11h-13z" fill="#fff"/>
</svg>
