<svg xmlns="http://www.w3.org/2000/svg" viewBox="0 0 700 420">
  <!-- Background -->
  <rect width="700" height="420" fill="#dde6f0"/>

  <!-- Left sidebar -->
  <rect x="0" y="0" width="124" height="420" fill="#0f2d52"/>
  <rect x="12" y="14" width="100" height="20" rx="10" fill="#ffffff" opacity="0.9"/>
  <rect x="12" y="52" width="78" height="9" rx="4.5" fill="#60a5fa" opacity="0.75"/>
  <rect x="12" y="70" width="65" height="9" rx="4.5" fill="#60a5fa" opacity="0.55"/>
  <rect x="0" y="88" width="124" height="30" fill="#22c55e" opacity="0.22"/>
  <rect x="12" y="98" width="88" height="9" rx="4.5" fill="#86efac"/>
  <rect x="12" y="132" width="72" height="9" rx="4.5" fill="#60a5fa" opacity="0.55"/>
  <rect x="12" y="152" width="82" height="9" rx="4.5" fill="#60a5fa" opacity="0.55"/>
  <rect x="12" y="172" width="60" height="9" rx="4.5" fill="#60a5fa" opacity="0.55"/>

  <!-- Top bar -->
  <rect x="136" y="0" width="564" height="44" fill="#0f2d52"/>
  <rect x="150" y="13" width="130" height="15" rx="7.5" fill="#ffffff" opacity="0.9"/>
  <rect x="482" y="11" width="68" height="22" rx="11" fill="#22c55e"/>
  <rect x="488" y="18" width="56" height="8" rx="4" fill="#ffffff"/>
  <rect x="560" y="11" width="84" height="22" rx="11" fill="rgba(255,255,255,0.12)"/>
  <rect x="568" y="18" width="68" height="8" rx="4" fill="rgba(255,255,255,0.6)"/>

  <!-- Product list panel -->
  <rect x="136" y="56" width="336" height="352" rx="14" fill="#ffffff"/>
  <!-- Search -->
  <rect x="150" y="68" width="308" height="28" rx="9" fill="#f1f5f9"/>
  <rect x="162" y="78" width="90" height="8" rx="4" fill="#94a3b8"/>
  <!-- Table header -->
  <rect x="150" y="104" width="308" height="22" rx="7" fill="#e2e8f0"/>
  <rect x="160" y="113" width="70" height="7" rx="3.5" fill="#475569"/>
  <rect x="306" y="113" width="40" height="7" rx="3.5" fill="#475569"/>
  <rect x="380" y="113" width="50" height="7" rx="3.5" fill="#475569"/>
  <!-- Row 1: green highlight -->
  <rect x="150" y="132" width="308" height="28" rx="7" fill="#f0fdf4"/>
  <rect x="160" y="142" width="110" height="7" rx="3.5" fill="#166534"/>
  <rect x="302" y="140" width="46" height="12" rx="6" fill="#22c55e"/>
  <rect x="310" y="143" width="30" height="6" rx="3" fill="#fff"/>
  <rect x="376" y="140" width="58" height="12" rx="6" fill="#22c55e"/>
  <rect x="382" y="143" width="46" height="6" rx="3" fill="#fff"/>
  <!-- Row 2 -->
  <rect x="150" y="166" width="308" height="28" rx="7" fill="#f8fafc"/>
  <rect x="160" y="176" width="90" height="7" rx="3.5" fill="#1e293b"/>
  <rect x="302" y="174" width="46" height="12" rx="6" fill="#3b82f6"/>
  <rect x="310" y="177" width="30" height="6" rx="3" fill="#fff"/>
  <rect x="376" y="174" width="58" height="12" rx="6" fill="#3b82f6"/>
  <rect x="382" y="177" width="46" height="6" rx="3" fill="#fff"/>
  <!-- Row 3 -->
  <rect x="150" y="200" width="308" height="28" rx="7" fill="#f0fdf4"/>
  <rect x="160" y="210" width="125" height="7" rx="3.5" fill="#166534"/>
  <rect x="302" y="208" width="46" height="12" rx="6" fill="#22c55e"/>
  <rect x="310" y="211" width="30" height="6" rx="3" fill="#fff"/>
  <rect x="376" y="208" width="58" height="12" rx="6" fill="#22c55e"/>
  <rect x="382" y="211" width="46" height="6" rx="3" fill="#fff"/>
  <!-- Row 4 -->
  <rect x="150" y="234" width="308" height="28" rx="7" fill="#fff7ed"/>
  <rect x="160" y="244" width="100" height="7" rx="3.5" fill="#92400e"/>
  <rect x="302" y="242" width="46" height="12" rx="6" fill="#f59e0b"/>
  <rect x="310" y="245" width="30" height="6" rx="3" fill="#fff"/>
  <rect x="376" y="242" width="58" height="12" rx="6" fill="#f59e0b"/>
  <rect x="382" y="245" width="46" height="6" rx="3" fill="#fff"/>
  <!-- Row 5 -->
  <rect x="150" y="268" width="308" height="28" rx="7" fill="#f8fafc"/>
  <rect x="160" y="278" width="115" height="7" rx="3.5" fill="#1e293b"/>
  <rect x="302" y="276" width="46" height="12" rx="6" fill="#22c55e"/>
  <rect x="310" y="279" width="30" height="6" rx="3" fill="#fff"/>
  <rect x="376" y="276" width="58" height="12" rx="6" fill="#22c55e"/>
  <rect x="382" y="279" width="46" height="6" rx="3" fill="#fff"/>
  <!-- Row 6: red/out-of-stock -->
  <rect x="150" y="302" width="308" height="28" rx="7" fill="#fef2f2"/>
  <rect x="160" y="312" width="80" height="7" rx="3.5" fill="#991b1b"/>
  <rect x="302" y="310" width="46" height="12" rx="6" fill="#ef4444"/>
  <rect x="310" y="313" width="30" height="6" rx="3" fill="#fff"/>
  <rect x="376" y="310" width="58" height="12" rx="6" fill="#ef4444"/>
  <rect x="382" y="313" width="46" height="6" rx="3" fill="#fff"/>

  <!-- Payment panel -->
  <rect x="484" y="56" width="204" height="352" rx="14" fill="#ffffff"/>
  <!-- Payment header -->
  <rect x="484" y="56" width="204" height="40" rx="14" fill="#0f3d68"/>
  <rect x="498" y="67" width="100" height="12" rx="6" fill="#ffffff" opacity="0.9"/>
  <!-- Total label + value -->
  <rect x="498" y="106" width="74" height="8" rx="4" fill="#94a3b8"/>
  <rect x="498" y="120" width="176" height="26" rx="9" fill="#0f172a"/>
  <rect x="510" y="129" width="100" height="8" rx="4" fill="#60a5fa"/>
  <!-- Cart items -->
  <rect x="498" y="154" width="176" height="24" rx="7" fill="#f0fdf4"/>
  <rect x="506" y="164" width="72" height="7" rx="3.5" fill="#1e293b"/>
  <rect x="620" y="162" width="46" height="10" rx="5" fill="#22c55e"/>
  <rect x="626" y="165" width="34" height="5" rx="2.5" fill="#fff"/>
  <rect x="498" y="184" width="176" height="24" rx="7" fill="#eff6ff"/>
  <rect x="506" y="194" width="56" height="7" rx="3.5" fill="#1e293b"/>
  <rect x="620" y="192" width="46" height="10" rx="5" fill="#3b82f6"/>
  <rect x="626" y="195" width="34" height="5" rx="2.5" fill="#fff"/>
  <rect x="498" y="214" width="176" height="24" rx="7" fill="#f0fdf4"/>
  <rect x="506" y="224" width="86" height="7" rx="3.5" fill="#1e293b"/>
  <rect x="620" y="222" width="46" height="10" rx="5" fill="#22c55e"/>
  <rect x="626" y="225" width="34" height="5" rx="2.5" fill="#fff"/>
  <!-- Payment type -->
  <rect x="498" y="250" width="176" height="24" rx="7" fill="#f1f5f9"/>
  <rect x="508" y="260" width="60" height="7" rx="3.5" fill="#475569"/>
  <!-- Recebido / Troco -->
  <rect x="498" y="282" width="84" height="24" rx="7" fill="#f1f5f9"/>
  <rect x="590" y="282" width="84" height="24" rx="7" fill="#dcfce7"/>
  <rect x="598" y="292" width="58" height="7" rx="3.5" fill="#15803d"/>
  <!-- Finalizar button -->
  <rect x="498" y="320" width="176" height="38" rx="14" fill="#22c55e"/>
  <rect x="536" y="336" width="100" height="8" rx="4" fill="#ffffff"/>
  <!-- status badge -->
  <rect x="498" y="370" width="176" height="26" rx="8" fill="#f0fdf4"/>
  <rect x="514" y="380" width="120" height="7" rx="3.5" fill="#15803d"/>
</svg>
