<svg xmlns="http://www.w3.org/2000/svg" viewBox="0 0 700 420">
  <rect width="700" height="420" fill="#dde6f0"/>
  <!-- sidebar -->
  <rect x="0" y="0" width="124" height="420" fill="#1e293b"/>
  <rect x="12" y="14" width="100" height="20" rx="10" fill="#fff" opacity="0.9"/>
  <rect x="12" y="52" width="78" height="9" rx="4.5" fill="#94a3b8" opacity="0.8"/>
  <rect x="0" y="66" width="124" height="30" fill="rgba(255,255,255,0.09)"/>
  <rect x="12" y="76" width="88" height="9" rx="4.5" fill="#fff"/>
  <rect x="12" y="108" width="72" height="9" rx="4.5" fill="#94a3b8" opacity="0.6"/>
  <rect x="12" y="128" width="82" height="9" rx="4.5" fill="#94a3b8" opacity="0.6"/>
  <rect x="12" y="148" width="60" height="9" rx="4.5" fill="#94a3b8" opacity="0.5"/>
  <!-- top bar -->
  <rect x="124" y="0" width="576" height="44" fill="#1e293b"/>
  <rect x="138" y="15" width="160" height="14" rx="7" fill="#fff" opacity="0.88"/>
  <!-- entity tabs -->
  <rect x="138" y="56" width="96" height="28" rx="9" fill="#0f172a"/>
  <rect x="146" y="65" width="62" height="9" rx="4.5" fill="#fff"/>
  <rect x="242" y="57" width="84" height="26" rx="8" fill="#fff"/>
  <rect x="250" y="65" width="50" height="9" rx="4.5" fill="#334155"/>
  <rect x="334" y="57" width="96" height="26" rx="8" fill="#fff"/>
  <rect x="342" y="65" width="60" height="9" rx="4.5" fill="#334155"/>
  <!-- form card (left) -->
  <rect x="136" y="92" width="230" height="316" rx="14" fill="#fff"/>
  <rect x="148" y="104" width="120" height="12" rx="6" fill="#1e293b"/>
  <!-- form fields -->
  <rect x="148" y="124" width="70" height="8" rx="4" fill="#64748b"/>
  <rect x="148" y="138" width="206" height="22" rx="7" fill="#f8fafc"/>
  <rect x="148" y="170" width="70" height="8" rx="4" fill="#64748b"/>
  <rect x="148" y="184" width="206" height="22" rx="7" fill="#f8fafc"/>
  <rect x="148" y="216" width="70" height="8" rx="4" fill="#64748b"/>
  <rect x="148" y="230" width="206" height="22" rx="7" fill="#f8fafc"/>
  <rect x="148" y="262" width="70" height="8" rx="4" fill="#64748b"/>
  <rect x="148" y="276" width="206" height="22" rx="7" fill="#f8fafc"/>
  <rect x="148" y="308" width="70" height="8" rx="4" fill="#64748b"/>
  <rect x="148" y="322" width="206" height="22" rx="7" fill="#f8fafc"/>
  <!-- submit button -->
  <rect x="148" y="364" width="206" height="32" rx="10" fill="#0369a1"/>
  <rect x="188" y="376" width="126" height="8" rx="4" fill="#fff"/>
  <!-- table card (right) -->
  <rect x="378" y="92" width="306" height="316" rx="14" fill="#fff"/>
  <rect x="392" y="104" width="100" height="12" rx="6" fill="#1e293b"/>
  <!-- search bar -->
  <rect x="392" y="122" width="278" height="22" rx="7" fill="#f1f5f9"/>
  <rect x="402" y="130" width="80" height="7" rx="3.5" fill="#94a3b8"/>
  <!-- table header -->
  <rect x="392" y="150" width="278" height="20" rx="6" fill="#e2e8f0"/>
  <rect x="400" y="158" width="50" height="6" rx="3" fill="#475569"/>
  <rect x="480" y="158" width="30" height="6" rx="3" fill="#475569"/>
  <rect x="544" y="158" width="40" height="6" rx="3" fill="#475569"/>
  <rect x="624" y="158" width="36" height="6" rx="3" fill="#475569"/>
  <!-- row 1: green -->
  <rect x="392" y="176" width="278" height="24" rx="7" fill="#f0fdf4"/>
  <rect x="400" y="185" width="60" height="7" rx="3.5" fill="#166534"/>
  <rect x="476" y="183" width="36" height="12" rx="6" fill="#22c55e"/>
  <rect x="482" y="186" width="24" height="5" rx="2.5" fill="#fff"/>
  <rect x="540" y="184" width="50" height="9" rx="4.5" fill="#dcfce7"/>
  <rect x="620" y="183" width="42" height="12" rx="6" fill="#22c55e" opacity="0.3"/>
  <!-- row 2: blue -->
  <rect x="392" y="206" width="278" height="24" rx="7" fill="#eff6ff"/>
  <rect x="400" y="215" width="70" height="7" rx="3.5" fill="#1e40af"/>
  <rect x="476" y="213" width="36" height="12" rx="6" fill="#3b82f6"/>
  <rect x="482" y="216" width="24" height="5" rx="2.5" fill="#fff"/>
  <rect x="540" y="214" width="50" height="9" rx="4.5" fill="#dbeafe"/>
  <rect x="620" y="213" width="42" height="12" rx="6" fill="#3b82f6" opacity="0.3"/>
  <!-- row 3: green -->
  <rect x="392" y="236" width="278" height="24" rx="7" fill="#f0fdf4"/>
  <rect x="400" y="245" width="80" height="7" rx="3.5" fill="#166534"/>
  <rect x="476" y="243" width="36" height="12" rx="6" fill="#22c55e"/>
  <rect x="482" y="246" width="24" height="5" rx="2.5" fill="#fff"/>
  <rect x="540" y="244" width="50" height="9" rx="4.5" fill="#dcfce7"/>
  <rect x="620" y="243" width="42" height="12" rx="6" fill="#22c55e" opacity="0.3"/>
  <!-- row 4: orange -->
  <rect x="392" y="266" width="278" height="24" rx="7" fill="#fff7ed"/>
  <rect x="400" y="275" width="55" height="7" rx="3.5" fill="#92400e"/>
  <rect x="476" y="273" width="36" height="12" rx="6" fill="#f59e0b"/>
  <rect x="482" y="276" width="24" height="5" rx="2.5" fill="#fff"/>
  <rect x="540" y="274" width="50" height="9" rx="4.5" fill="#fef3c7"/>
  <rect x="620" y="273" width="42" height="12" rx="6" fill="#f59e0b" opacity="0.3"/>
  <!-- row 5: grey inactive -->
  <rect x="392" y="296" width="278" height="24" rx="7" fill="#f8fafc"/>
  <rect x="400" y="305" width="65" height="7" rx="3.5" fill="#94a3b8"/>
  <rect x="476" y="303" width="36" height="12" rx="6" fill="#94a3b8"/>
  <rect x="482" y="306" width="24" height="5" rx="2.5" fill="#fff"/>
  <rect x="540" y="304" width="50" height="9" rx="4.5" fill="#f1f5f9"/>
  <!-- row 6: red -->
  <rect x="392" y="326" width="278" height="24" rx="7" fill="#fef2f2"/>
  <rect x="400" y="335" width="75" height="7" rx="3.5" fill="#991b1b"/>
  <rect x="476" y="333" width="36" height="12" rx="6" fill="#ef4444"/>
  <rect x="482" y="336" width="24" height="5" rx="2.5" fill="#fff"/>
  <rect x="540" y="334" width="50" height="9" rx="4.5" fill="#fee2e2"/>
  <!-- pagination area -->
  <rect x="392" y="362" width="278" height="32" rx="8" fill="#f8fafc"/>
  <rect x="400" y="374" width="60" height="7" rx="3.5" fill="#94a3b8"/>
  <rect x="584" y="370" width="24" height="16" rx="5" fill="#e2e8f0"/>
  <rect x="614" y="370" width="24" height="16" rx="5" fill="#0369a1"/>
  <rect x="620" y="375" width="12" height="6" rx="3" fill="#fff"/>
  <rect x="644" y="370" width="24" height="16" rx="5" fill="#e2e8f0"/>
</svg>
