<svg xmlns="http://www.w3.org/2000/svg" viewBox="0 0 700 420">
  <!-- Background -->
  <rect width="700" height="420" fill="#dde6f0"/>

  <!-- Sidebar -->
  <rect x="0" y="0" width="124" height="420" fill="#1e1b4b"/>
  <rect x="12" y="14" width="100" height="20" rx="10" fill="#ffffff" opacity="0.9"/>
  <rect x="12" y="52" width="78" height="9" rx="4.5" fill="#a5b4fc" opacity="0.8"/>
  <rect x="0" y="68" width="124" height="30" fill="rgba(255,255,255,0.1)"/>
  <rect x="12" y="78" width="88" height="9" rx="4.5" fill="#ffffff"/>
  <rect x="12" y="112" width="72" height="9" rx="4.5" fill="#a5b4fc" opacity="0.6"/>
  <rect x="12" y="132" width="82" height="9" rx="4.5" fill="#a5b4fc" opacity="0.6"/>

  <!-- Top bar -->
  <rect x="136" y="0" width="564" height="44" fill="#1e1b4b"/>
  <rect x="150" y="14" width="150" height="14" rx="7" fill="#ffffff" opacity="0.9"/>

  <!-- KPI cards row -->
  <rect x="136" y="56" width="170" height="80" rx="14" fill="#ffffff"/>
  <rect x="150" y="67" width="80" height="9" rx="4.5" fill="#475569"/>
  <rect x="150" y="84" width="130" height="22" rx="8" fill="#dbeafe"/>
  <rect x="160" y="92" width="90" height="10" rx="5" fill="#2563eb"/>
  <rect x="150" y="116" width="80" height="8" rx="4" fill="#94a3b8"/>

  <rect x="318" y="56" width="170" height="80" rx="14" fill="#ffffff"/>
  <rect x="332" y="67" width="80" height="9" rx="4.5" fill="#475569"/>
  <rect x="332" y="84" width="130" height="22" rx="8" fill="#fee2e2"/>
  <rect x="342" y="92" width="80" height="10" rx="5" fill="#dc2626"/>
  <rect x="332" y="116" width="80" height="8" rx="4" fill="#94a3b8"/>

  <rect x="500" y="56" width="200" height="80" rx="14" fill="#dcfce7"/>
  <rect x="514" y="67" width="80" height="9" rx="4.5" fill="#15803d"/>
  <rect x="514" y="84" width="160" height="22" rx="8" fill="#22c55e"/>
  <rect x="524" y="92" width="100" height="10" rx="5" fill="#ffffff"/>
  <rect x="514" y="116" width="80" height="8" rx="4" fill="#166534"/>

  <!-- Revenue/Expense bar chart -->
  <rect x="136" y="148" width="360" height="260" rx="14" fill="#ffffff"/>
  <rect x="150" y="162" width="100" height="12" rx="6" fill="#1e293b"/>
  <!-- Legend -->
  <rect x="382" y="164" width="10" height="10" rx="2" fill="#3b82f6"/>
  <rect x="394" y="167" width="40" height="6" rx="3" fill="#64748b"/>
  <rect x="440" y="164" width="10" height="10" rx="2" fill="#ef4444"/>
  <rect x="452" y="167" width="36" height="6" rx="3" fill="#64748b"/>
  <!-- Bars (grouped) -->
  <!-- Group 1 -->
  <rect x="162" y="208" width="22" height="140" rx="4" fill="#3b82f6"/>
  <rect x="188" y="248" width="22" height="100" rx="4" fill="#ef4444"/>
  <!-- Group 2 -->
  <rect x="224" y="220" width="22" height="128" rx="4" fill="#3b82f6"/>
  <rect x="250" y="258" width="22" height="90" rx="4" fill="#ef4444"/>
  <!-- Group 3 -->
  <rect x="286" y="190" width="22" height="158" rx="4" fill="#3b82f6"/>
  <rect x="312" y="230" width="22" height="118" rx="4" fill="#ef4444"/>
  <!-- Group 4 -->
  <rect x="348" y="226" width="22" height="122" rx="4" fill="#3b82f6"/>
  <rect x="374" y="256" width="22" height="92" rx="4" fill="#ef4444"/>
  <!-- Group 5 -->
  <rect x="410" y="202" width="22" height="146" rx="4" fill="#3b82f6"/>
  <rect x="436" y="240" width="22" height="108" rx="4" fill="#ef4444"/>
  <!-- Baseline -->
  <rect x="150" y="348" width="332" height="2" rx="1" fill="#e2e8f0"/>
  <!-- X-axis labels -->
  <rect x="162" y="356" width="18" height="6" rx="3" fill="#94a3b8"/>
  <rect x="224" y="356" width="18" height="6" rx="3" fill="#94a3b8"/>
  <rect x="286" y="356" width="18" height="6" rx="3" fill="#94a3b8"/>
  <rect x="348" y="356" width="18" height="6" rx="3" fill="#94a3b8"/>
  <rect x="410" y="356" width="18" height="6" rx="3" fill="#94a3b8"/>

  <!-- Summary side panel -->
  <rect x="508" y="148" width="192" height="260" rx="14" fill="#ffffff"/>
  <rect x="522" y="162" width="100" height="12" rx="6" fill="#1e293b"/>
  <!-- Items -->
  <rect x="522" y="184" width="164" height="30" rx="8" fill="#f0f9ff"/>
  <rect x="532" y="193" width="70" height="7" rx="3.5" fill="#0369a1"/>
  <rect x="628" y="192" width="50" height="10" rx="5" fill="#0ea5e9"/>
  <rect x="634" y="195" width="38" height="6" rx="3" fill="#fff"/>

  <rect x="522" y="220" width="164" height="30" rx="8" fill="#fff1f2"/>
  <rect x="532" y="229" width="70" height="7" rx="3.5" fill="#be123c"/>
  <rect x="628" y="228" width="50" height="10" rx="5" fill="#f43f5e"/>
  <rect x="634" y="231" width="38" height="6" rx="3" fill="#fff"/>

  <rect x="522" y="256" width="164" height="30" rx="8" fill="#f0fdf4"/>
  <rect x="532" y="265" width="70" height="7" rx="3.5" fill="#166534"/>
  <rect x="628" y="264" width="50" height="10" rx="5" fill="#22c55e"/>
  <rect x="634" y="267" width="38" height="6" rx="3" fill="#fff"/>

  <rect x="522" y="292" width="164" height="30" rx="8" fill="#fefce8"/>
  <rect x="532" y="301" width="70" height="7" rx="3.5" fill="#713f12"/>
  <rect x="628" y="300" width="50" height="10" rx="5" fill="#eab308"/>
  <rect x="634" y="303" width="38" height="6" rx="3" fill="#fff"/>

  <!-- Import XML button -->
  <rect x="522" y="340" width="164" height="34" rx="12" fill="#1e293b"/>
  <rect x="550" y="354" width="108" height="8" rx="4" fill="#94a3b8"/>
  <rect x="522" y="382" width="164" height="18" rx="8" fill="#f1f5f9"/>
  <rect x="540" y="388" width="80" height="6" rx="3" fill="#64748b"/>
</svg>
