<svg xmlns="http://www.w3.org/2000/svg" viewBox="0 0 700 420">
  <rect width="700" height="420" fill="#dde6f0"/>
  <!-- sidebar -->
  <rect x="0" y="0" width="124" height="420" fill="#0c1e38"/>
  <rect x="12" y="14" width="100" height="20" rx="10" fill="#fff" opacity="0.9"/>
  <rect x="12" y="52" width="78" height="9" rx="4.5" fill="#60a5fa" opacity="0.7"/>
  <rect x="0" y="66" width="124" height="30" fill="rgba(255,255,255,0.08)"/>
  <rect x="12" y="76" width="88" height="9" rx="4.5" fill="#fff"/>
  <rect x="12" y="108" width="72" height="9" rx="4.5" fill="#60a5fa" opacity="0.6"/>
  <rect x="12" y="128" width="82" height="9" rx="4.5" fill="#60a5fa" opacity="0.6"/>
  <rect x="12" y="148" width="60" height="9" rx="4.5" fill="#60a5fa" opacity="0.6"/>
  <!-- top bar -->
  <rect x="124" y="0" width="576" height="44" fill="#0c1e38"/>
  <rect x="138" y="15" width="160" height="14" rx="7" fill="#fff" opacity="0.88"/>
  <!-- KPI card 1: Receitas green -->
  <rect x="136" y="56" width="256" height="106" rx="14" fill="#fff"/>
  <rect x="148" y="68" width="90" height="9" rx="4.5" fill="#64748b"/>
  <rect x="148" y="84" width="210" height="32" rx="9" fill="#dcfce7"/>
  <rect x="158" y="92" width="140" height="16" rx="8" fill="#15803d"/>
  <rect x="148" y="124" width="60" height="8" rx="4" fill="#86efac"/>
  <rect x="214" y="122" width="72" height="12" rx="6" fill="#22c55e" opacity="0.25"/>
  <rect x="220" y="126" width="60" height="5" rx="2.5" fill="#166534"/>
  <!-- KPI card 2: Despesas red -->
  <rect x="404" y="56" width="280" height="106" rx="14" fill="#fff"/>
  <rect x="416" y="68" width="90" height="9" rx="4.5" fill="#64748b"/>
  <rect x="416" y="84" width="210" height="32" rx="9" fill="#fee2e2"/>
  <rect x="426" y="92" width="130" height="16" rx="8" fill="#dc2626"/>
  <rect x="416" y="124" width="60" height="8" rx="4" fill="#fca5a5"/>
  <rect x="482" y="122" width="72" height="12" rx="6" fill="#ef4444" opacity="0.25"/>
  <rect x="488" y="126" width="60" height="5" rx="2.5" fill="#b91c1c"/>
  <!-- KPI card 3: Lucro blue -->
  <rect x="136" y="174" width="256" height="106" rx="14" fill="#fff"/>
  <rect x="148" y="186" width="90" height="9" rx="4.5" fill="#64748b"/>
  <rect x="148" y="202" width="210" height="32" rx="9" fill="#dbeafe"/>
  <rect x="158" y="210" width="150" height="16" rx="8" fill="#1d4ed8"/>
  <rect x="148" y="242" width="60" height="8" rx="4" fill="#93c5fd"/>
  <rect x="214" y="240" width="72" height="12" rx="6" fill="#3b82f6" opacity="0.25"/>
  <rect x="220" y="244" width="60" height="5" rx="2.5" fill="#1e3a8a"/>
  <!-- KPI card 4: Estoque amber -->
  <rect x="404" y="174" width="280" height="106" rx="14" fill="#fff"/>
  <rect x="416" y="186" width="90" height="9" rx="4.5" fill="#64748b"/>
  <rect x="416" y="202" width="210" height="32" rx="9" fill="#fef3c7"/>
  <rect x="426" y="210" width="140" height="16" rx="8" fill="#b45309"/>
  <rect x="416" y="242" width="60" height="8" rx="4" fill="#fcd34d"/>
  <rect x="482" y="240" width="72" height="12" rx="6" fill="#f59e0b" opacity="0.25"/>
  <rect x="488" y="244" width="60" height="5" rx="2.5" fill="#78350f"/>
  <!-- Bottom activity chart -->
  <rect x="136" y="292" width="548" height="116" rx="14" fill="#fff"/>
  <rect x="150" y="306" width="130" height="11" rx="5.5" fill="#1e293b"/>
  <rect x="150" y="326" width="18" height="58" rx="4" fill="#22c55e" opacity="0.85"/>
  <rect x="176" y="342" width="18" height="42" rx="4" fill="#22c55e" opacity="0.85"/>
  <rect x="202" y="320" width="18" height="64" rx="4" fill="#3b82f6" opacity="0.85"/>
  <rect x="228" y="334" width="18" height="50" rx="4" fill="#22c55e" opacity="0.85"/>
  <rect x="254" y="328" width="18" height="56" rx="4" fill="#3b82f6" opacity="0.85"/>
  <rect x="280" y="350" width="18" height="34" rx="4" fill="#f59e0b" opacity="0.85"/>
  <rect x="306" y="318" width="18" height="66" rx="4" fill="#22c55e" opacity="0.85"/>
  <rect x="332" y="338" width="18" height="46" rx="4" fill="#ef4444" opacity="0.85"/>
  <rect x="358" y="324" width="18" height="60" rx="4" fill="#3b82f6" opacity="0.85"/>
  <rect x="150" y="384" width="350" height="2" rx="1" fill="#e2e8f0"/>
  <!-- right alerts -->
  <rect x="520" y="308" width="148" height="22" rx="8" fill="#fee2e2"/>
  <rect x="530" y="316" width="80" height="7" rx="3.5" fill="#dc2626"/>
  <rect x="520" y="336" width="148" height="22" rx="8" fill="#fef3c7"/>
  <rect x="530" y="344" width="90" height="7" rx="3.5" fill="#d97706"/>
  <rect x="520" y="364" width="148" height="22" rx="8" fill="#dcfce7"/>
  <rect x="530" y="372" width="70" height="7" rx="3.5" fill="#16a34a"/>
</svg>
